SplineFontDB: 3.0
FontName: Topmarks-Bold
FullName: Topmarks Bold
FamilyName: Topmarks
Weight: Medium
Copyright: Copyright (c) 2012-13 by vernon adams. All rights reserved.
ItalicAngle: 0
UnderlinePosition: 0
UnderlineWidth: 0
Ascent: 1638
Descent: 410
UFOAscent: 1470
UFODescent: -410
LayerCount: 2
Layer: 0 0 "Back"  1
Layer: 1 0 "Fore"  0
FSType: 1
OS2Version: 0
OS2_WeightWidthSlopeOnly: 0
OS2_UseTypoMetrics: 0
CreationTime: 1364248669
ModificationTime: 1364248700
PfmFamily: 0
TTFWeight: 700
TTFWidth: 5
LineGap: 0
VLineGap: 0
OS2TypoAscent: 1638
OS2TypoAOffset: 0
OS2TypoDescent: 410
OS2TypoDOffset: 0
OS2TypoLinegap: 0
OS2WinAscent: 1638
OS2WinAOffset: 0
OS2WinDescent: 410
OS2WinDOffset: 0
HheadAscent: 2471
HheadAOffset: 0
HheadDescent: -1101
HheadDOffset: 0
OS2Vendor: 'newt'
Lookup: 258 0 0 "'kern' Horizontal Kerning in Latin lookup 0"  {"'kern' Horizontal Kerning in Latin lookup 0 subtable"  } ['kern' ('latn' <'dflt' > ) ]
Lookup: 258 0 0 "kernHorizontalKerninginLatinloo"  {"kernHorizontalKerninginLatinloo subtable"  } ['kern' ('latn' <'dflt' > ) ]
Lookup: 258 0 0 "pos_pair_kernlatn_0"  {"pos_pair_kernlatn_0 subtable"  } ['kern' ('latn' <'dflt' > ) ]
Lookup: 258 0 0 "pos_pair_kernlatn_2"  {"pos_pair_kernlatn_2 subtable"  } ['kern' ('latn' <'dflt' > ) ]
DEI: 91125
LangName: 1033 "" "" "" "" "" "" "" "" "vernon adams" "vernon adams" "Copyright (c) 2011 by vernon adams. All rights reserved." 
Encoding: ISO8859-1
Compacted: 1
UnicodeInterp: none
NameList: AGL For New Fonts
DisplaySize: -48
AntiAlias: 1
FitToEm: 1
WinInfo: 0 22 10
BeginPrivate: 4
BlueValues 26 [-80 0 979 1086 1432 1467]
OtherBlues 11 [-820 -750]
StemSnapH 20 [41 256 281 291 303]
StemSnapV 9 [338 352]
EndPrivate
BeginChars: 399 97

StartChar: A
Encoding: 65 65 0
Width: 1408
VWidth: 0
GlyphClass: 2
Flags: HW
LayerCount: 2
UndoRedoHistory
Layer: 1
Undoes
EndUndoes
Redoes
EndRedoes
EndUndoRedoHistory
Fore
SplineSet
50.5 0 m 1
 589 1456 l 1
 829 1456 l 1
 1357.5 0 l 1
 1072.5 0 l 1
 963.5 335 l 1
 437.5 335 l 1
 324.5 0 l 1
 50.5 0 l 1
504.5 533 m 1
 898.5 533 l 1
 828 758 l 1
 703 1129 l 1
 578 758 l 1
 504.5 533 l 1
EndSplineSet
EndChar

StartChar: B
Encoding: 66 66 1
Width: 1368
VWidth: 0
GlyphClass: 2
Flags: W
HStem: 0 201<436 697> 657 184 1248 200
VStem: 192 250 967 242 1024 246
LayerCount: 2
UndoRedoHistory
Layer: 1
Undoes
EndUndoes
Redoes
EndRedoes
EndUndoRedoHistory
Fore
SplineSet
186 0 m 1
 186 1456 l 1
 633 1456 l 2
 1015 1456 1203 1353 1203 1108 c 0
 1203 928 1132 830 966 782 c 1
 1175 747 1264 637 1264 424 c 0
 1264 131 1078 0 697 0 c 2
 186 0 l 1
436 201 m 1
 700 201 l 2
 923 201 1018 272 1018 437 c 0
 1018 594 918 664 685 664 c 2
 436 664 l 1
 436 201 l 1
436 848 m 1
 656 848 l 2
 871 848 961 915 961 1070 c 0
 961 1203 867 1256 643 1256 c 2
 436 1256 l 1
 436 848 l 1
EndSplineSet
EndChar

StartChar: C
Encoding: 67 67 2
Width: 1370
VWidth: 0
GlyphClass: 2
Flags: W
HStem: -22 218 1252 218
VStem: 150 256
LayerCount: 2
UndoRedoHistory
Layer: 1
Undoes
EndUndoes
Redoes
EndRedoes
EndUndoRedoHistory
Fore
SplineSet
823 -24 m 0
 405 -24 116 287 116 733 c 0
 116 1185 417 1483 836 1483 c 0
 985 1483 1152 1422 1275 1327 c 1
 1188 1136 l 1
 1113 1197 966 1276 833 1276 c 0
 543 1276 372 1045 372 732 c 0
 372 418 542 184 847 184 c 0
 968 184 1114 232 1213 311 c 1
 1291 125 l 1
 1182 36 981 -24 823 -24 c 0
EndSplineSet
EndChar

StartChar: D
Encoding: 68 68 3
Width: 1536
VWidth: 0
GlyphClass: 2
Flags: W
HStem: 0 200<436 582> 1248 200
VStem: 204 250 1211 256
LayerCount: 2
UndoRedoHistory
Layer: 1
Undoes
EndUndoes
Redoes
EndRedoes
EndUndoRedoHistory
Fore
SplineSet
436 200 m 1
 598 200 l 2
 1016 200 1174 372 1174 739 c 0
 1174 1092 1004 1256 558 1256 c 2
 436 1256 l 1
 436 200 l 1
186 0 m 1
 186 1456 l 1
 525 1456 l 2
 1119 1456 1430 1240 1430 742 c 0
 1430 225 1148 0 582 0 c 2
 186 0 l 1
EndSplineSet
EndChar

StartChar: E
Encoding: 69 69 4
Width: 1196
VWidth: 0
GlyphClass: 2
Flags: W
HStem: 0 200<436 1064 436 1064> 642 193 1248 200
VStem: 204 250
LayerCount: 2
UndoRedoHistory
Layer: 1
Undoes
EndUndoes
Redoes
EndRedoes
EndUndoRedoHistory
Fore
SplineSet
186 0 m 1
 186 1456 l 1
 1044 1456 l 1
 1044 1256 l 1
 436 1256 l 1
 436 843 l 1
 1002 843 l 1
 1002 650 l 1
 436 650 l 1
 436 200 l 1
 1064 200 l 1
 1064 0 l 1
 186 0 l 1
EndSplineSet
EndChar

StartChar: F
Encoding: 70 70 5
Width: 1151
VWidth: 0
GlyphClass: 2
Flags: W
LayerCount: 2
UndoRedoHistory
Layer: 1
Undoes
EndUndoes
Redoes
EndRedoes
EndUndoRedoHistory
Fore
SplineSet
186 0 m 1
 186 1456 l 1
 1027 1456 l 1
 1027 1256 l 1
 436 1256 l 1
 436 865 l 1
 994 865 l 1
 994 672 l 1
 436 672 l 1
 436 0 l 1
 186 0 l 1
EndSplineSet
EndChar

StartChar: G
Encoding: 71 71 6
Width: 1494
VWidth: 0
GlyphClass: 2
Flags: W
HStem: -22 218 595 178<808 1096 808 1340> 1252 218
VStem: 150 256 1130 244
LayerCount: 2
UndoRedoHistory
Layer: 1
Undoes
EndUndoes
Redoes
EndRedoes
EndUndoRedoHistory
Fore
SplineSet
836 -24 m 0
 408 -24 116 256 116 687 c 0
 116 1159 422 1483 858 1483 c 0
 1101 1483 1241 1403 1324 1351 c 1
 1237 1162 l 1
 1184 1191 1034 1276 867 1276 c 0
 564 1276 372 1033 372 701 c 0
 372 391 562 184 848 184 c 0
 943 184 1033 198 1096 227 c 1
 1096 595 l 1
 808 595 l 1
 808 773 l 1
 1340 773 l 1
 1340 78 l 1
 1208 16 1005 -24 836 -24 c 0
EndSplineSet
EndChar

StartChar: H
Encoding: 72 72 7
Width: 1541
VWidth: 0
GlyphClass: 2
Flags: W
HStem: 0 21<186 186 186 436 1105 1105 1105 1355> 635 215<436 1105 436 1105> 1428 20
VStem: 186 250<0 635 850 1456> 1106 250
LayerCount: 2
UndoRedoHistory
Layer: 1
Undoes
EndUndoes
Redoes
EndRedoes
EndUndoRedoHistory
Fore
SplineSet
186 0 m 1
 186 1456 l 1
 436 1456 l 1
 436 850 l 1
 1105 850 l 1
 1105 1456 l 1
 1355 1456 l 1
 1355 0 l 1
 1105 0 l 1
 1105 635 l 1
 436 635 l 1
 436 0 l 1
 186 0 l 1
EndSplineSet
EndChar

StartChar: I
Encoding: 73 73 8
Width: 650
VWidth: 0
GlyphClass: 2
Flags: W
HStem: 0 21<200 200 200 450> 1428 20
VStem: 200 250<0 1456 0 1456>
LayerCount: 2
UndoRedoHistory
Layer: 1
Undoes
EndUndoes
Redoes
EndRedoes
EndUndoRedoHistory
Fore
SplineSet
200 0 m 1
 200 1456 l 1
 450 1456 l 1
 450 0 l 1
 200 0 l 1
EndSplineSet
EndChar

StartChar: J
Encoding: 74 74 9
Width: 1127
VWidth: 0
GlyphClass: 2
Flags: HW
HStem: -212 234
VStem: 587 243
LayerCount: 2
UndoRedoHistory
Layer: 1
Undoes
EndUndoes
Redoes
EndRedoes
EndUndoRedoHistory
Fore
SplineSet
-34 -47 m 1
 117 94 l 1
 198 1 293 -44 376 -44 c 0
 490 -44 580 40 580 200 c 2
 580 1256 l 1
 216 1256 l 1
 216 1456 l 1
 1086 1456 l 1
 1086 1256 l 1
 823 1256 l 1
 823 219 l 2
 823 -103 617 -252 394 -252 c 0
 239 -252 76 -181 -34 -47 c 1
EndSplineSet
EndChar

StartChar: K
Encoding: 75 75 10
Width: 1279
VWidth: 0
GlyphClass: 2
Flags: W
LayerCount: 2
UndoRedoHistory
Layer: 1
Undoes
EndUndoes
Redoes
EndRedoes
EndUndoRedoHistory
Fore
SplineSet
186 0 m 1
 186 1456 l 1
 436 1456 l 1
 436 822 l 1
 945 1456 l 1
 1249 1456 l 1
 664 773 l 1
 1283 0 l 1
 964 0 l 1
 436 681 l 1
 436 0 l 1
 186 0 l 1
EndSplineSet
EndChar

StartChar: L
Encoding: 76 76 11
Width: 1073
VWidth: 0
GlyphClass: 2
Flags: W
HStem: 0 200<436 1042 436 1042> 1428 20
VStem: 204 250
LayerCount: 2
UndoRedoHistory
Layer: 1
Undoes
EndUndoes
Redoes
EndRedoes
EndUndoRedoHistory
Fore
SplineSet
186 0 m 1
 186 1456 l 1
 436 1456 l 1
 436 200 l 1
 1042 200 l 1
 1042 0 l 1
 186 0 l 1
EndSplineSet
EndChar

StartChar: M
Encoding: 77 77 12
Width: 1877
VWidth: 0
GlyphClass: 2
Flags: W
HStem: 0 21<186 186 186 436 1441 1441 1441 1691> 1428 20
VStem: 186 250<0 1102 0 1456> 1442 250
LayerCount: 2
UndoRedoHistory
Layer: 1
Undoes
EndUndoes
Redoes
EndRedoes
EndUndoRedoHistory
Fore
SplineSet
186 0 m 1
 186 1456 l 1
 479 1456 l 1
 857 741 l 1
 938.5 569 l 1
 1019 743 l 1
 1399 1456 l 1
 1691 1456 l 1
 1691 0 l 1
 1441 0 l 1
 1441 1085 l 1
 1336 871 l 1
 992.5 229 l 1
 879.5 229 l 1
 540 883 l 1
 436 1102 l 1
 436 0 l 1
 186 0 l 1
EndSplineSet
EndChar

StartChar: N
Encoding: 78 78 13
Width: 1605
VWidth: 0
GlyphClass: 2
Flags: W
HStem: 0 21<186 186 186 406 1154 1154 1154 1419> 1428 20
VStem: 187 220 1200 220
LayerCount: 2
UndoRedoHistory
Layer: 1
Undoes
EndUndoes
Redoes
EndRedoes
EndUndoRedoHistory
Fore
SplineSet
186 0 m 1
 186 1456 l 1
 447 1456 l 1
 1082 520 l 1
 1199 340 l 1
 1199 1456 l 1
 1419 1456 l 1
 1419 0 l 1
 1154 0 l 1
 515 951 l 1
 406 1113 l 1
 406 0 l 1
 186 0 l 1
EndSplineSet
EndChar

StartChar: O
Encoding: 79 79 14
Width: 1582
VWidth: 0
GlyphClass: 2
Flags: W
HStem: -22 202 1252 218
VStem: 111 256<562 889 562 949> 1215 256<724 889>
LayerCount: 2
UndoRedoHistory
Layer: 1
Undoes
EndUndoes
Redoes
EndRedoes
EndUndoRedoHistory
Fore
SplineSet
788 184 m 0
 1036 184 1216 400 1215 724 c 1
 1215 1054 1036 1276 788 1276 c 0
 540 1276 367 1054 367 724 c 0
 367 400 540 184 788 184 c 0
788 -24 m 0
 392 -24 111 276 111 726 c 0
 111 1172 392 1483 788 1483 c 0
 1188 1483 1471 1172 1471 726 c 0
 1471 276 1188 -24 788 -24 c 0
EndSplineSet
EndChar

StartChar: P
Encoding: 80 80 15
Width: 1272
VWidth: 0
GlyphClass: 2
Flags: W
LayerCount: 2
UndoRedoHistory
Layer: 1
Undoes
EndUndoes
Redoes
EndRedoes
EndUndoRedoHistory
Fore
SplineSet
186 0 m 1
 186 1456 l 1
 606 1456 l 2
 1019 1456 1207 1330 1207 1017 c 0
 1207 689 1025 559 629 559 c 2
 436 559 l 1
 436 0 l 1
 186 0 l 1
436 762 m 1
 646 762 l 2
 854 762 951 829 951 1015 c 0
 951 1192 847 1256 628 1256 c 2
 436 1256 l 1
 436 762 l 1
EndSplineSet
EndChar

StartChar: Q
Encoding: 81 81 16
Width: 1582
VWidth: 0
GlyphClass: 2
Flags: W
HStem: -22 202 1252 218
VStem: 116 256 1220 256
LayerCount: 2
UndoRedoHistory
Layer: 1
Undoes
EndUndoes
Redoes
EndRedoes
EndUndoRedoHistory
Fore
SplineSet
1238 -425 m 1
 956 13 l 1
 1162 86 l 1
 1416 -312 l 1
 1238 -425 l 1
EndSplineSet
Refer: 14 79 N 1 0 0 1 5 0 2
EndChar

StartChar: R
Encoding: 82 82 17
Width: 1325
VWidth: 0
GlyphClass: 2
Flags: W
HStem: 0 21<186 186 186 436 1002 1002 1002 1269> 638 183 1248 200
VStem: 204 250 943 252
LayerCount: 2
UndoRedoHistory
Layer: 1
Undoes
EndUndoes
Redoes
EndRedoes
EndUndoRedoHistory
Fore
SplineSet
186 0 m 1
 186 1456 l 1
 644 1456 l 2
 1018 1456 1194 1343 1194 1077 c 0
 1194 886 1123 726 902 666 c 1
 956 724 l 1
 1269 0 l 1
 1002 0 l 1
 724 712 l 1
 803 646 l 1
 436 646 l 1
 436 0 l 1
 186 0 l 1
436 829 m 1
 652 829 l 2
 855 829 942 895 942 1062 c 0
 942 1222 857 1256 661 1256 c 2
 436 1256 l 1
 436 829 l 1
EndSplineSet
EndChar

StartChar: S
Encoding: 83 83 18
Width: 1253
VWidth: 0
GlyphClass: 2
Flags: W
HStem: -22 218 1252 218
VStem: 162 263 908 236
LayerCount: 2
UndoRedoHistory
Layer: 1
Undoes
EndUndoes
Redoes
EndRedoes
EndUndoRedoHistory
Fore
SplineSet
674 -24 m 0
 507 -24 304 33 165 121 c 1
 224 319 l 1
 400 221 545 184 665 184 c 0
 826 184 903 279 903 385 c 0
 903 486 879 559 555 664 c 1
 234 776 157 899 157 1072 c 0
 157 1289 294 1483 648 1483 c 0
 794 1483 955 1439 1087 1358 c 1
 1017 1164 l 1
 891 1231 772 1276 664 1276 c 0
 472 1276 415 1202 415 1105 c 0
 415 1005 441 955 688 866 c 1
 1034 747 1145 642 1139 391 c 0
 1134 164 989 -24 674 -24 c 0
EndSplineSet
EndChar

StartChar: T
Encoding: 84 84 19
Width: 1189
VWidth: 0
GlyphClass: 2
Flags: W
HStem: 0 21<470.5 470.5 470.5 718.5> 1248 200
VStem: 470 248
LayerCount: 2
UndoRedoHistory
Layer: 1
Undoes
EndUndoes
Redoes
EndRedoes
EndUndoRedoHistory
Fore
SplineSet
470.5 0 m 1
 471 1256 l 1
 61 1256 l 1
 61 1456 l 1
 1129 1456 l 1
 1129 1256 l 1
 719 1256 l 1
 718.5 0 l 1
 470.5 0 l 1
EndSplineSet
EndChar

StartChar: U
Encoding: 85 85 20
Width: 1488
VWidth: 0
GlyphClass: 2
Flags: W
HStem: -22 202 1428 20
VStem: 159 250<547 1456> 1080 249<424 529>
LayerCount: 2
UndoRedoHistory
Layer: 1
Undoes
EndUndoes
Redoes
EndRedoes
EndUndoRedoHistory
Fore
SplineSet
753 -24 m 0
 406 -24 159 208 159 547 c 2
 159 1456 l 1
 409 1456 l 1
 409 536 l 2
 409 322 546 184 752 184 c 0
 947 184 1080 319 1080 529 c 2
 1079 1456 l 1
 1329 1456 l 1
 1329 558 l 2
 1329 213 1092 -24 753 -24 c 0
EndSplineSet
EndChar

StartChar: V
Encoding: 86 86 21
Width: 1315
VWidth: 0
GlyphClass: 2
Flags: W
HStem: 0 21<535 535 535 813> 1428 20
LayerCount: 2
UndoRedoHistory
Layer: 1
Undoes
EndUndoes
Redoes
EndRedoes
EndUndoRedoHistory
Fore
SplineSet
535 0 m 1
 7 1456 l 1
 279 1456 l 1
 560 630 l 1
 675 323 l 1
 782 629 l 1
 1028 1456 l 1
 1308 1456 l 1
 813 0 l 1
 535 0 l 1
EndSplineSet
EndChar

StartChar: W
Encoding: 87 87 22
Width: 2153
VWidth: 0
GlyphClass: 2
Flags: W
HStem: 0 21<502 502 502 723 1431 1431 1431 1652> 1428 20
LayerCount: 2
UndoRedoHistory
Layer: 1
Undoes
EndUndoes
Redoes
EndRedoes
EndUndoRedoHistory
Fore
SplineSet
502 0 m 1
 50 1456 l 1
 305 1456 l 1
 554 614 l 1
 621 385 l 1
 707 614 l 1
 1002 1456 l 1
 1164 1456 l 1
 1458 610 l 1
 1539 386 l 1
 1611 614 l 1
 1854 1456 l 1
 2103 1456 l 1
 1652 0 l 1
 1431 0 l 1
 1078 1051 l 1
 723 0 l 1
 502 0 l 1
EndSplineSet
EndChar

StartChar: X
Encoding: 88 88 23
Width: 1317
VWidth: 0
GlyphClass: 2
Flags: W
HStem: 0 21<-4 270 -4 -4 1033 1304 1033 1033> 1428 20
LayerCount: 2
UndoRedoHistory
Layer: 1
Undoes
EndUndoes
Redoes
EndRedoes
EndUndoRedoHistory
Fore
SplineSet
1033 0 m 1
 658 564 l 1
 270 0 l 1
 -4 0 l 1
 535 751 l 1
 45 1456 l 1
 323 1456 l 1
 682 908 l 1
 1048 1456 l 1
 1321 1456 l 1
 805 720 l 1
 1304 0 l 1
 1033 0 l 1
EndSplineSet
EndChar

StartChar: Y
Encoding: 89 89 24
Width: 1219
VWidth: 0
GlyphClass: 2
Flags: W
HStem: 0 21<492 492 492 742> 1428 20
VStem: 492 250<0 588 588 588>
LayerCount: 2
UndoRedoHistory
Layer: 1
Undoes
EndUndoes
Redoes
EndRedoes
EndUndoRedoHistory
Fore
SplineSet
492 0 m 1
 492 588 l 1
 -17 1456 l 1
 254 1456 l 1
 615 814 l 1
 978 1456 l 1
 1236 1456 l 1
 742 590 l 1
 742 0 l 1
 492 0 l 1
EndSplineSet
EndChar

StartChar: Z
Encoding: 90 90 25
Width: 1219
VWidth: 0
GlyphClass: 2
Flags: W
HStem: 0 200<395 1124 395 1124> 1248 200
LayerCount: 2
UndoRedoHistory
Layer: 1
Undoes
EndUndoes
Redoes
EndRedoes
EndUndoRedoHistory
Fore
SplineSet
100 0 m 1
 100 198 l 1
 840 1256 l 1
 131 1256 l 1
 131 1456 l 1
 1132 1456 l 1
 1132 1276 l 1
 395 200 l 1
 1124 200 l 1
 1124 0 l 1
 100 0 l 1
EndSplineSet
EndChar

StartChar: a
Encoding: 97 97 26
Width: 1197
VWidth: 0
GlyphClass: 2
Flags: HW
HStem: -22 196<481.5 579> 820 196
VStem: 104 248<354 542.5 354 602> 762 242<363 419 419 808>
LayerCount: 2
UndoRedoHistory
Layer: 1
Undoes
EndUndoes
Redoes
EndRedoes
EndUndoRedoHistory
Fore
SplineSet
518 -22 m 0
 281 -22 104 160 104 421 c 0
 104 783 337 1006 668 1016 c 0
 824 1021 960 963 1004 945 c 1
 1004 363 l 2
 1004 253 1010 176 1163 176 c 1
 1131 -16 l 1
 984 -16 858 -7 804 151 c 1
 752 46 640 -22 518 -22 c 0
535 174 m 0
 677 174 762 276 762 419 c 2
 762 808 l 1
 762 808 706 826 631 820 c 0
 469 807 352 655 352 430 c 0
 352 278 428 174 535 174 c 0
EndSplineSet
EndChar

StartChar: ampersand
Encoding: 38 38 27
Width: 2794
VWidth: 0
GlyphClass: 2
Flags: HW
LayerCount: 2
UndoRedoHistory
Layer: 1
Undoes
EndUndoes
Redoes
EndRedoes
EndUndoRedoHistory
Fore
SplineSet
812 -47 m 0
 557 -47 358 57 260 243 c 0
 227 305 213 377 213 456 c 0
 213 599 275 696 351 773 c 1
 433 858 536 926 635 985 c 1
 562 1066 484 1144 446 1259 c 0
 434 1293 429 1332 429 1373 c 0
 429 1606 601 1714 812 1714 c 0
 981 1714 1111 1644 1175 1527 c 0
 1198 1484 1209 1436 1209 1379 c 0
 1209 1271 1161 1192 1110 1132 c 1
 1050 1059 967 998 884 949 c 1
 1324 452 l 1
 1394 564 1449 710 1473 872 c 0
 1481 924 1485 973 1485 1022 c 1
 1681 998 l 1
 1671 718 1574 485 1447 318 c 1
 1530 229 1607 160 1734 118 c 1
 1771 107 1815 96 1864 85 c 1
 1708 -30 l 1
 1534 -4 1443 102 1348 203 c 1
 1222 66 1058 -47 812 -47 c 0
809 120 m 0
 1011 120 1130 215 1233 326 c 1
 1231 326 1222 334 1208 349 c 0
 1137 425 1058 518 985 599 c 2
 741 865 l 1
 625 799 508 726 450 597 c 0
 433 557 424 512 424 461 c 0
 424 288 533 191 654 146 c 0
 701 129 753 120 809 120 c 0
774 1062 m 1
 864 1114 958 1179 1006 1275 c 0
 1020 1304 1029 1334 1029 1367 c 0
 1029 1495 934 1557 820 1557 c 0
 704 1557 612 1496 612 1367 c 0
 612 1260 659 1191 707 1133 c 0
 727 1110 750 1087 774 1062 c 1
EndSplineSet
EndChar

StartChar: asciicircum
Encoding: 94 94 28
Width: 1209
VWidth: 0
GlyphClass: 2
Flags: W
LayerCount: 2
UndoRedoHistory
Layer: 1
Undoes
EndUndoes
Redoes
EndRedoes
EndUndoRedoHistory
Fore
SplineSet
105 570 m 1
 561 1448 l 1
 653 1448 l 1
 1115 570 l 1
 911 570 l 1
 605 1176 l 1
 311 570 l 1
 105 570 l 1
EndSplineSet
EndChar

StartChar: asciitilde
Encoding: 126 126 29
Width: 1654
VWidth: 0
GlyphClass: 2
Flags: HW
LayerCount: 2
UndoRedoHistory
Layer: 1
Undoes
EndUndoes
Redoes
EndRedoes
EndUndoRedoHistory
Fore
SplineSet
384 678 m 1
 249 742 l 1
 277 875 356 979 462 1028 c 1
 498 1046 538 1054 583 1054 c 0
 647 1054 708 1027 760 1005 c 0
 846 967 930 915 1016 880 c 0
 1039 871 1059 866 1076 866 c 0
 1183 866 1248 979 1270 1075 c 1
 1417 1029 l 1
 1384 890 1312 782 1192 731 c 0
 1155 715 1117 708 1075 708 c 0
 1020 708 964 735 920 757 c 0
 836 797 750 850 659 882 c 0
 632 891 607 896 585 896 c 0
 468 896 407 784 384 678 c 1
EndSplineSet
EndChar

StartChar: asterisk
Encoding: 42 42 30
Width: 1850
VWidth: 0
GlyphClass: 2
Flags: W
LayerCount: 2
UndoRedoHistory
Layer: 1
Undoes
EndUndoes
Redoes
EndRedoes
EndUndoRedoHistory
Fore
SplineSet
892 632 m 1
 723 944 l 1
 560 641 l 1
 414 729 l 1
 632 1009 l 1
 318 1100 l 1
 343 1259 l 1
 665 1114 l 1
 635 1470 l 1
 786 1470 l 1
 773 1120 l 1
 1037 1262 l 1
 1113 1116 l 1
 810 1013 l 1
 1040 718 l 1
 892 632 l 1
EndSplineSet
EndChar

StartChar: at
Encoding: 64 64 31
Width: 1886
VWidth: 0
GlyphClass: 2
Flags: HW
LayerCount: 2
UndoRedoHistory
Layer: 1
Undoes
EndUndoes
Redoes
EndRedoes
EndUndoRedoHistory
Fore
SplineSet
996 -96 m 0
 559 -96 154 182 154 689 c 0
 154 1212 577 1482 1009 1482 c 0
 1381 1482 1743 1258 1743 800 c 0
 1743 479 1564 266 1318 266 c 0
 1210 266 1110 330 1119 474 c 1
 1049 333 931 267 836 267 c 0
 679 267 564 400 564 636 c 0
 564 914 765 1130 962 1145 c 0
 1103 1156 1165 1091 1193 1009 c 1
 1232 1114 l 1
 1373 1114 l 1
 1300 760 1251 513 1251 496 c 0
 1251 436 1287 399 1333 399 c 0
 1433 399 1582 512 1582 805 c 0
 1582 1140 1317 1337 1007 1337 c 0
 651 1337 345 1108 345 694 c 0
 345 279 641 57 1024 57 c 0
 1162 57 1321 97 1444 168 c 1
 1525 39 l 1
 1367 -56 1170 -96 996 -96 c 0
891 433 m 0
 991 433 1117 569 1117 836 c 0
 1117 943 1069 991 1009 991 c 0
 905 991 766 851 766 619 c 0
 766 494 823 433 891 433 c 0
EndSplineSet
EndChar

StartChar: b
Encoding: 98 98 32
Width: 1207
VWidth: 0
GlyphClass: 2
Flags: HW
LayerCount: 2
UndoRedoHistory
Layer: 1
Undoes
EndUndoes
Redoes
EndRedoes
EndUndoRedoHistory
Fore
SplineSet
573 -22 m 0
 442 -22 309 3 170 55 c 1
 170 1470 l 1
 412 1470 l 1
 412 905 l 1
 487 1005 585 1052 709 1052 c 0
 911 1052 1113 881 1113 565 c 0
 1113 175 828 -22 573 -22 c 0
564 169 m 0
 684 169 865 281 865 561 c 0
 865 728 784 861 667 861 c 0
 534 861 412 740 412 511 c 2
 412 192 l 1
 460 176 510 169 564 169 c 0
EndSplineSet
EndChar

StartChar: backslash
Encoding: 92 92 33
Width: 1229
VWidth: 0
GlyphClass: 2
Flags: W
LayerCount: 2
UndoRedoHistory
Layer: 1
Undoes
EndUndoes
Redoes
EndRedoes
EndUndoRedoHistory
Fore
SplineSet
792 0 m 1
 213 1448 l 1
 450 1448 l 1
 1027 0 l 1
 792 0 l 1
EndSplineSet
EndChar

StartChar: bar
Encoding: 124 124 34
Width: 891
VWidth: 0
GlyphClass: 2
Flags: W
LayerCount: 2
UndoRedoHistory
Layer: 1
Undoes
EndUndoes
Redoes
EndRedoes
EndUndoRedoHistory
Fore
SplineSet
358 -409 m 1
 358 1526 l 1
 543 1526 l 1
 543 -409 l 1
 358 -409 l 1
EndSplineSet
EndChar

StartChar: braceleft
Encoding: 123 123 35
Width: 1114
VWidth: 0
GlyphClass: 2
Flags: HW
LayerCount: 2
UndoRedoHistory
Layer: 1
Undoes
EndUndoes
Redoes
EndRedoes
EndUndoRedoHistory
Fore
SplineSet
725 -456 m 1
 507 -447 346 -367 346 -138 c 2
 347 169 l 2
 347 343 321 459 161 476 c 1
 161 618 l 1
 302 631 351 739 351 894 c 1
 350 943 348 991 348 1041 c 0
 348 1090 347 1141 346 1190 c 1
 346 1440 472 1552 725 1552 c 1
 725 1404 l 1
 594 1400 541 1343 541 1207 c 2
 540 868 l 2
 540 713 473 599 376 547 c 1
 484 496 535 383 535 230 c 0
 535 155 534 50 534 -27 c 0
 534 -154 544 -264 634 -295 c 0
 658 -304 689 -308 725 -308 c 1
 725 -456 l 1
EndSplineSet
EndChar

StartChar: braceright
Encoding: 125 125 36
Width: 973
VWidth: 0
GlyphClass: 2
Flags: HW
LayerCount: 2
UndoRedoHistory
Layer: 1
Undoes
EndUndoes
Redoes
EndRedoes
EndUndoRedoHistory
Fore
SplineSet
190 -326 m 1
 190 -178 l 1
 350 -178 379 -107 379 103 c 2
 379 290 l 2
 379 443 432 556 540 607 c 1
 440 659 375 772 375 928 c 2
 375 1207 l 2
 375 1343 322 1400 190 1404 c 1
 190 1552 l 1
 442 1552 569 1440 569 1190 c 2
 569 954 l 2
 569 799 614 691 755 678 c 1
 753 536 l 1
 634 524 572 455 571 335 c 2
 569 -8 l 2
 568 -237 408 -317 190 -326 c 1
EndSplineSet
EndChar

StartChar: bracketleft
Encoding: 91 91 37
Width: 918
VWidth: 0
GlyphClass: 2
Flags: W
LayerCount: 2
UndoRedoHistory
Layer: 1
Undoes
EndUndoes
Redoes
EndRedoes
EndUndoRedoHistory
Fore
SplineSet
257 -214 m 1
 257 1470 l 1
 708 1470 l 1
 708 1340 l 1
 516 1340 l 1
 516 -85 l 1
 708 -85 l 1
 708 -214 l 1
 257 -214 l 1
EndSplineSet
EndChar

StartChar: bracketright
Encoding: 93 93 38
Width: 1115
VWidth: 0
GlyphClass: 2
Flags: W
LayerCount: 2
UndoRedoHistory
Layer: 1
Undoes
EndUndoes
Redoes
EndRedoes
EndUndoRedoHistory
Fore
SplineSet
176 -232 m 1
 176 -103 l 1
 369 -103 l 1
 369 1340 l 1
 177 1340 l 1
 177 1470 l 1
 627 1470 l 1
 627 -232 l 1
 176 -232 l 1
EndSplineSet
EndChar

StartChar: c
Encoding: 99 99 39
Width: 1023
VWidth: 0
GlyphClass: 2
Flags: HW
HStem: -22 196 815 201
VStem: 106 248
LayerCount: 2
UndoRedoHistory
Layer: 1
Undoes
EndUndoes
Redoes
EndRedoes
EndUndoRedoHistory
Fore
SplineSet
607 -22 m 0
 297 -22 104 214 104 519 c 0
 104 836 343 1052 610 1052 c 0
 718 1052 826 1018 929 942 c 1
 858 772 l 1
 769 836 691 861 619 861 c 0
 457 861 352 697 352 520 c 0
 352 329 453 169 623 169 c 0
 725 169 811 214 881 275 c 1
 959 104 l 1
 847 17 717 -22 607 -22 c 0
EndSplineSet
EndChar

StartChar: colon
Encoding: 58 58 40
Width: 961
VWidth: 0
GlyphClass: 2
Flags: W
LayerCount: 2
UndoRedoHistory
Layer: 1
Undoes
EndUndoes
Redoes
EndRedoes
EndUndoRedoHistory
Fore
SplineSet
290 -20 m 1
 290 227 l 1
 545 227 l 1
 545 -20 l 1
 290 -20 l 1
290 980 m 1
 290 1227 l 1
 545 1227 l 1
 545 980 l 1
 290 980 l 1
EndSplineSet
EndChar

StartChar: comma
Encoding: 44 44 41
Width: 532
VWidth: 0
GlyphClass: 2
Flags: W
LayerCount: 2
UndoRedoHistory
Layer: 1
Undoes
EndUndoes
Redoes
EndRedoes
EndUndoRedoHistory
Fore
SplineSet
68 -331 m 1
 193 213 l 1
 442 213 l 1
 252 -331 l 1
 68 -331 l 1
EndSplineSet
EndChar

StartChar: d
Encoding: 100 100 42
Width: 1224
VWidth: 0
GlyphClass: 2
Flags: HW
HStem: -22 196 820 196
VStem: 106 248<365 596 365 645.5> 805 242<383.5 498 498 839 1026 1026 1026 1470>
LayerCount: 2
UndoRedoHistory
Layer: 1
Undoes
EndUndoes
Redoes
EndRedoes
EndUndoRedoHistory
Fore
SplineSet
354 456 m 0
 354 274 455 169 562 169 c 0
 684 169 805 269 805 498 c 2
 805 839 l 1
 761 852 712 861 663 861 c 0
 510 861 354 736 354 456 c 0
847 150 m 1
 779 41 652 -22 525 -22 c 0
 330 -22 106 125 106 450 c 0
 106 841 378 1052 633 1052 c 0
 690 1052 747 1043 805 1026 c 1
 805 1470 l 1
 1047 1470 l 1
 1047 365 l 2
 1047 217 1082 176 1206 176 c 1
 1174 -16 l 1
 963 -16 897 24 847 150 c 1
EndSplineSet
EndChar

StartChar: dollar
Encoding: 36 36 43
Width: 1255
VWidth: 0
GlyphClass: 2
Flags: W
LayerCount: 2
UndoRedoHistory
Layer: 1
Undoes
EndUndoes
Redoes
EndRedoes
EndUndoRedoHistory
Fore
SplineSet
608 -213 m 1
 610 1628 l 1
 739 1628 l 1
 739 -213 l 1
 608 -213 l 1
EndSplineSet
Refer: 18 83 N 1 0 0 1 10 0 2
EndChar

StartChar: e
Encoding: 101 101 44
Width: 1071
VWidth: 0
GlyphClass: 2
Flags: HW
HStem: -22 195 835 181
VStem: 104 240<523 538 538 614 523 665> 728 228<701 790.5>
LayerCount: 2
UndoRedoHistory
Layer: 1
Undoes
EndUndoes
Redoes
EndRedoes
EndUndoRedoHistory
Fore
SplineSet
595 -22 m 0
 338 -22 104 173 104 514 c 0
 104 816 314 1052 597 1052 c 0
 822 1052 956 897 956 750 c 0
 956 566 792 425 366 359 c 1
 391 255 500 169 607 169 c 0
 690 169 787 187 897 278 c 1
 985 114 l 1
 874 17 721 -22 595 -22 c 0
344 523 m 1
 636 587 728 644 728 758 c 0
 728 823 681 871 603 871 c 0
 450 871 344 690 344 538 c 2
 344 523 l 1
EndSplineSet
EndChar

StartChar: eight
Encoding: 56 56 45
Width: 1254
VWidth: 0
GlyphClass: 2
Flags: W
LayerCount: 2
UndoRedoHistory
Layer: 1
Undoes
EndUndoes
Redoes
EndRedoes
EndUndoRedoHistory
Fore
SplineSet
633 -24 m 0
 353 -24 152 111 152 360 c 0
 152 575 310 703 448 756 c 1
 322 805 185 921 185 1107 c 0
 185 1352 381 1483 633 1483 c 0
 923 1483 1081 1305 1081 1107 c 0
 1081 931 941 805 816 756 c 1
 955 703 1112 575 1112 360 c 0
 1112 78 900 -24 633 -24 c 0
637 176 m 0
 774 176 862 245 862 371 c 0
 862 511 750 620 637 644 c 1
 512 618 412 500 412 371 c 0
 412 237 507 176 637 176 c 0
637 872 m 1
 750 894 838 981 838 1106 c 0
 838 1223 750 1276 637 1276 c 0
 515 1276 434 1215 434 1106 c 0
 434 981 522 894 637 872 c 1
EndSplineSet
EndChar

StartChar: equal
Encoding: 61 61 46
Width: 1269
VWidth: 0
GlyphClass: 2
Flags: HW
LayerCount: 2
UndoRedoHistory
Layer: 1
Undoes
EndUndoes
Redoes
EndRedoes
EndUndoRedoHistory
Fore
SplineSet
227 853 m 1
 227 996 l 1
 1053 996 l 1
 1053 853 l 1
 227 853 l 1
228 450 m 1
 228 590 l 1
 1053 590 l 1
 1053 450 l 1
 228 450 l 1
EndSplineSet
EndChar

StartChar: exclam
Encoding: 33 33 47
Width: 771
VWidth: 0
GlyphClass: 2
Flags: HW
LayerCount: 2
UndoRedoHistory
Layer: 1
Undoes
EndUndoes
Redoes
EndRedoes
EndUndoRedoHistory
Fore
SplineSet
390 -20 m 0
 285 -20 210 55 210 158 c 0
 210 258 287 331 391 331 c 0
 495 331 571 257 571 155 c 0
 571 54 494 -20 390 -20 c 0
319 498 m 1
 228 1470 l 1
 542 1470 l 1
 448 498 l 1
 319 498 l 1
EndSplineSet
EndChar

StartChar: f
Encoding: 102 102 48
Width: 760
VWidth: 0
GlyphClass: 2
Flags: HW
LayerCount: 2
UndoRedoHistory
Layer: 1
Undoes
EndUndoes
Redoes
EndRedoes
EndUndoRedoHistory
Fore
SplineSet
96 -410 m 1
 75 -213 l 1
 205 -213 254 -155 254 -19 c 2
 254 874 l 1
 68 874 l 1
 68 1026 l 1
 254 1026 l 1
 254 1116 l 2
 254 1406 452 1470 725 1470 c 2
 776 1470 l 1
 776 1282 l 1
 557 1282 496 1249 496 1081 c 2
 496 1026 l 1
 726 1026 l 1
 726 874 l 1
 496 874 l 1
 496 -11 l 2
 496 -273 365 -410 96 -410 c 1
EndSplineSet
EndChar

StartChar: five
Encoding: 53 53 49
Width: 1254
VWidth: 0
GlyphClass: 2
Flags: W
LayerCount: 2
UndoRedoHistory
Layer: 1
Undoes
EndUndoes
Redoes
EndRedoes
EndUndoRedoHistory
Fore
SplineSet
621 -24 m 0
 476 -24 322 29 196 133 c 1
 286 322 l 1
 412 224 520 184 606 184 c 0
 763 184 863 313 863 459 c 0
 863 639 757 731 644 733 c 1
 571 733 506 717 439 644 c 1
 264 644 l 1
 264 1456 l 1
 996 1456 l 1
 996 1257 l 1
 492 1257 l 1
 478 851 l 1
 520 885 588 929 711 929 c 0
 900 929 1105 806 1105 466 c 0
 1105 138 871 -24 621 -24 c 0
EndSplineSet
EndChar

StartChar: four
Encoding: 52 52 50
Width: 1254
VWidth: 0
GlyphClass: 2
Flags: W
LayerCount: 2
UndoRedoHistory
Layer: 1
Undoes
EndUndoes
Redoes
EndRedoes
EndUndoRedoHistory
Fore
SplineSet
755 0 m 1
 755 327 l 1
 114 327 l 1
 114 504 l 1
 720 1456 l 1
 982 1456 l 1
 982 511 l 1
 1179 511 l 1
 1179 327 l 1
 982 327 l 1
 982 0 l 1
 755 0 l 1
344 511 m 1
 755 511 l 1
 755 1167 l 1
 579 882 l 1
 344 511 l 1
EndSplineSet
EndChar

StartChar: g
Encoding: 103 103 51
Width: 1186
VWidth: 0
GlyphClass: 2
Flags: HW
HStem: -543 195<493.5 596 473 685.5> -22 196 820 196
VStem: 106 248 816 244
LayerCount: 2
UndoRedoHistory
Layer: 1
Undoes
EndUndoes
Redoes
EndRedoes
EndUndoRedoHistory
Fore
SplineSet
549 -543 m 0
 438 -543 311 -512 173 -450 c 1
 205 -241 l 1
 299 -301 420 -348 526 -348 c 0
 666 -348 804 -244 804 -3 c 2
 804 129 l 1
 736 36 626 0 530 0 c 0
 286 0 104 199 104 460 c 0
 104 806 323 1052 656 1052 c 0
 783 1052 950 998 1046 942 c 1
 1046 15 l 2
 1046 -341 822 -543 549 -543 c 0
559 191 m 0
 707 191 805 352 805 545 c 2
 805 837 l 1
 769 851 710 861 657 861 c 0
 488 861 352 725 352 470 c 0
 352 318 448 191 559 191 c 0
EndSplineSet
EndChar

StartChar: grave
Encoding: 96 96 52
Width: 1054
VWidth: 0
GlyphClass: 2
Flags: W
HStem: 2064 318<-94 236 -94 425>
VStem: -94 519<2064 2382>
LayerCount: 2
UndoRedoHistory
Layer: 1
Undoes
EndUndoes
Redoes
EndRedoes
EndUndoRedoHistory
Fore
SplineSet
236 2064 m 1
 -94 2382 l 1
 179 2382 l 1
 425 2064 l 1
 236 2064 l 1
EndSplineSet
EndChar

StartChar: greater
Encoding: 62 62 53
Width: 1413
VWidth: 0
GlyphClass: 2
Flags: W
LayerCount: 2
UndoRedoHistory
Layer: 1
Undoes
EndUndoes
Redoes
EndRedoes
EndUndoRedoHistory
Fore
SplineSet
292 102 m 1
 292 255 l 1
 1028 597 l 1
 298 966 l 1
 298 1118 l 1
 1248 636 l 1
 1248 547 l 1
 292 102 l 1
EndSplineSet
EndChar

StartChar: h
Encoding: 104 104 54
Width: 1238
VWidth: 0
GlyphClass: 2
Flags: HW
HStem: -16 193<1142.5 1184 1184 1184> 804 212
VStem: 182 242 836 242
LayerCount: 2
UndoRedoHistory
Layer: 1
Undoes
EndUndoes
Redoes
EndRedoes
EndUndoRedoHistory
Fore
SplineSet
1184 -16 m 1
 1139 -16 l 2
 904 -16 818 88 818 298 c 2
 818 606 l 2
 818 759 758 861 630 861 c 0
 468 861 402 734 402 595 c 2
 402 0 l 1
 160 0 l 1
 160 1470 l 1
 402 1470 l 1
 402 931 l 1
 482 1015 597 1052 688 1052 c 0
 915 1052 1060 875 1060 608 c 2
 1060 352 l 2
 1060 224 1089 177 1196 177 c 2
 1218 177 l 1
 1184 -16 l 1
EndSplineSet
EndChar

StartChar: hyphen
Encoding: 45 45 55
Width: 1274
VWidth: 0
GlyphClass: 2
Flags: W
HStem: 657 168<253 1032 253 1032>
LayerCount: 2
UndoRedoHistory
Layer: 1
Undoes
EndUndoes
Redoes
EndRedoes
EndUndoRedoHistory
Fore
SplineSet
253 657 m 1
 253 825 l 1
 1032 825 l 1
 1032 657 l 1
 253 657 l 1
EndSplineSet
EndChar

StartChar: i
Encoding: 105 105 56
Width: 711
VWidth: 0
GlyphClass: 2
Flags: HW
HStem: 1176 310<255 352.5>
VStem: 136 336<1285 1375.5 1284.5 1377> 177 242<127.5 1026 339 1026 339 1026>
LayerCount: 2
UndoRedoHistory
Layer: 1
Undoes
EndUndoes
Redoes
EndRedoes
EndUndoRedoHistory
Fore
SplineSet
727 38 m 1
 497 -65 177 -22 177 277 c 2
 177 1026 l 1
 419 1026 l 1
 419 339 l 2
 419 163 555 173 696 222 c 1
 727 38 l 1
303 1176 m 0
 205 1176 136 1239 136 1331 c 0
 136 1423 205 1486 305 1486 c 0
 402 1486 472 1421 472 1330 c 0
 472 1239 402 1176 303 1176 c 0
EndSplineSet
EndChar

StartChar: j
Encoding: 106 106 57
Width: 661
VWidth: 0
GlyphClass: 2
Flags: HW
HStem: -498 204 1169 312<299.5 397>
VStem: 180 337<1279 1369.5 1278 1370> 240 242<-93 -90 -90 1026>
LayerCount: 2
UndoRedoHistory
Layer: 1
Undoes
EndUndoes
Redoes
EndRedoes
EndUndoRedoHistory
Fore
SplineSet
112 -499 m 0
 9 -499 -64 -475 -64 -475 c 1
 -43 -305 l 1
 -43 -305 22 -323 90 -323 c 0
 188 -323 240 -280 240 -90 c 2
 240 1026 l 1
 482 1026 l 1
 482 -93 l 2
 482 -325 418 -499 112 -499 c 0
347 1169 m 0
 250 1169 180 1234 180 1324 c 0
 180 1416 250 1481 349 1481 c 0
 447 1481 517 1416 517 1323 c 0
 517 1233 447 1169 347 1169 c 0
EndSplineSet
EndChar

StartChar: k
Encoding: 107 107 58
Width: 1171
VWidth: 0
GlyphClass: 2
Flags: HW
LayerCount: 2
UndoRedoHistory
Layer: 1
Undoes
EndUndoes
Redoes
EndRedoes
EndUndoRedoHistory
Fore
SplineSet
1167 195 m 1
 1130 3 l 1
 1012 -42 895 -42 780 123 c 1
 627 355 l 1
 399 35 l 1
 318 -68 162 -27 162 102 c 2
 162 1470 l 1
 404 1470 l 1
 404 389 l 1
 824 1026 l 1
 1046 965 l 1
 762 539 l 1
 932 290 l 1
 1038 155 1054 165 1167 195 c 1
EndSplineSet
EndChar

StartChar: l
Encoding: 108 108 59
Width: 735
VWidth: 0
GlyphClass: 2
Flags: HW
HStem: -11 202<512 544.5>
VStem: 162 242<192 1470 353 1470 353 1470>
LayerCount: 2
UndoRedoHistory
Layer: 1
Undoes
EndUndoes
Redoes
EndRedoes
EndUndoRedoHistory
Fore
SplineSet
728 218 m 1
 753 28 l 1
 666 4 583 -11 506 -11 c 0
 306 -11 162 83 162 301 c 2
 162 1470 l 1
 404 1470 l 1
 404 353 l 2
 404 241 464 191 560 191 c 0
 605 191 681 203 728 218 c 1
EndSplineSet
EndChar

StartChar: less
Encoding: 60 60 60
Width: 2526
VWidth: 0
GlyphClass: 2
Flags: W
LayerCount: 2
UndoRedoHistory
Layer: 1
Undoes
EndUndoes
Redoes
EndRedoes
EndUndoRedoHistory
Fore
SplineSet
1345 84 m 1
 396 542 l 1
 396 629 l 1
 1349 1098 l 1
 1349 947 l 1
 614 586 l 1
 1345 236 l 1
 1345 84 l 1
EndSplineSet
EndChar

StartChar: m
Encoding: 109 109 61
Width: 1871
VWidth: 0
GlyphClass: 2
Flags: HW
HStem: -16 192<1791 1821 1821 1821> 804 212
VStem: 182 242<0 591 591 641 0 591> 821 242<0 606 0 614> 1452 242<228 608 357 606>
LayerCount: 2
UndoRedoHistory
Layer: 1
Undoes
EndUndoes
Redoes
EndRedoes
EndUndoRedoHistory
Fore
SplineSet
1821 -16 m 1
 1791 -16 l 2
 1525 -16 1452 117 1452 339 c 2
 1452 606 l 2
 1452 759 1390 861 1260 861 c 0
 1154 861 1063 762 1063 614 c 2
 1063 0 l 1
 821 0 l 1
 821 606 l 2
 821 779 740 861 632 861 c 0
 508 861 424 747 424 591 c 2
 424 0 l 1
 182 0 l 1
 182 641 l 2
 182 742 151 858 56 937 c 1
 283 1026 l 1
 321 998 370 930 383 881 c 1
 444 997 579 1052 703 1052 c 0
 849 1052 947 964 995 862 c 1
 1077 1008 1222 1052 1316 1052 c 0
 1552 1052 1694 875 1694 608 c 2
 1694 357 l 2
 1694 237 1716 176 1830 176 c 2
 1855 176 l 1
 1821 -16 l 1
EndSplineSet
EndChar

StartChar: n
Encoding: 110 110 62
Width: 1257
VWidth: 0
GlyphClass: 2
Flags: HW
HStem: -16 192<1172 1207 1207 1207> 804 212
VStem: 185 242<0 592 592 643 0 592> 838 242<345 368 368 604>
LayerCount: 2
UndoRedoHistory
Layer: 1
Undoes
EndUndoes
Redoes
EndRedoes
EndUndoRedoHistory
Fore
SplineSet
1241 176 m 1
 1207 -16 l 1
 1172 -16 l 2
 911 -16 838 121 838 368 c 2
 838 604 l 2
 838 757 795 861 661 861 c 0
 548 861 427 767 427 592 c 2
 427 0 l 1
 185 0 l 1
 185 643 l 2
 185 764 143 860 56 937 c 1
 282 1026 l 1
 330 989 374 919 386 873 c 1
 435 967 563 1052 720 1052 c 0
 949 1052 1080 875 1080 608 c 2
 1080 345 l 2
 1080 236 1103 176 1224 176 c 2
 1241 176 l 1
EndSplineSet
EndChar

StartChar: nine
Encoding: 57 57 63
Width: 1254
VWidth: 0
GlyphClass: 2
Flags: HW
LayerCount: 2
UndoRedoHistory
Layer: 1
Undoes
EndUndoes
Redoes
EndRedoes
EndUndoRedoHistory
Fore
SplineSet
597 -119 m 1
 411 -6 l 1
 709 529 l 1
 698 523 675 523 623 523 c 0
 367 523 151 731 151 997 c 0
 151 1326 413 1483 643 1483 c 0
 874 1483 1130 1321 1130 992 c 0
 1130 867 1035 649 952 511 c 1
 597 -119 l 1
656 714 m 0
 781 714 911 812 911 1009 c 0
 911 1191 780 1282 652 1282 c 0
 525 1282 388 1193 388 1011 c 0
 388 815 527 714 656 714 c 0
EndSplineSet
EndChar

StartChar: numbersign
Encoding: 35 35 64
Width: 2114
VWidth: 0
GlyphClass: 2
Flags: W
LayerCount: 2
UndoRedoHistory
Layer: 1
Undoes
EndUndoes
Redoes
EndRedoes
EndUndoRedoHistory
Fore
SplineSet
545 -127 m 1
 639 372 l 1
 348 372 l 1
 361 519 l 1
 664 519 l 1
 682 630 700 734 718 843 c 1
 424 843 l 1
 440 988 l 1
 740 988 l 1
 824 1470 l 1
 979 1470 l 1
 897 988 l 1
 1174 988 l 1
 1255 1470 l 1
 1415 1470 l 1
 1327 988 l 1
 1606 988 l 1
 1589 843 l 1
 1303 843 l 1
 1248 519 l 1
 1532 519 l 1
 1515 372 l 1
 1225 372 l 1
 1137 -127 l 1
 984 -127 l 1
 1068 372 l 1
 792 372 l 1
 705 -127 l 1
 545 -127 l 1
815 519 m 1
 1095 519 l 1
 1149 843 l 1
 873 843 l 1
 815 519 l 1
EndSplineSet
EndChar

StartChar: o
Encoding: 111 111 65
Width: 1200
VWidth: 0
GlyphClass: 2
Flags: W
HStem: -22 196 820 196
VStem: 99 248<415.5 608.5 415.5 666> 853 248<415.5 608.5>
LayerCount: 2
UndoRedoHistory
Layer: 1
Undoes
EndUndoes
Redoes
EndRedoes
EndUndoRedoHistory
Fore
SplineSet
600 169 m 0
 760 169 853 319 853 512 c 0
 853 705 759 861 598 861 c 0
 437 861 347 705 347 512 c 0
 347 319 438 169 600 169 c 0
598 -22 m 0
 307 -22 99 205 99 512 c 0
 99 820 306 1052 597 1052 c 0
 892 1052 1101 822 1101 513 c 0
 1101 206 894 -22 598 -22 c 0
EndSplineSet
EndChar

StartChar: one
Encoding: 49 49 66
Width: 999
VWidth: 0
GlyphClass: 2
Flags: HW
LayerCount: 2
UndoRedoHistory
Layer: 1
Undoes
EndUndoes
Redoes
EndRedoes
EndUndoRedoHistory
Fore
SplineSet
471 0 m 1
 471 1241 l 1
 405 1190 301 1143 195 1099 c 1
 135 1270 l 1
 251 1322 410 1405 477 1456 c 1
 721 1456 l 1
 721 0 l 1
 471 0 l 1
EndSplineSet
EndChar

StartChar: p
Encoding: 112 112 67
Width: 1210
VWidth: 0
GlyphClass: 2
Flags: HW
LayerCount: 2
UndoRedoHistory
Layer: 1
Undoes
EndUndoes
Redoes
EndRedoes
EndUndoRedoHistory
Fore
SplineSet
173 -496 m 1
 173 651 l 2
 173 814 80 906 44 937 c 1
 270 1026 l 1
 299 1005 353 922 374 849 c 1
 441 961 517 1052 702 1052 c 0
 876 1052 1116 929 1116 574 c 0
 1116 221 910 -22 589 -22 c 0
 521 -22 482 -14 415 4 c 1
 415 -496 l 1
 173 -496 l 1
415 193 m 1
 462 178 499 169 553 169 c 0
 760 169 868 322 868 572 c 0
 868 731 793 861 663 861 c 0
 532 861 415 729 415 490 c 2
 415 193 l 1
EndSplineSet
EndChar

StartChar: parenleft
Encoding: 40 40 68
Width: 821
VWidth: 0
GlyphClass: 2
Flags: HW
LayerCount: 2
UndoRedoHistory
Layer: 1
Undoes
EndUndoes
Redoes
EndRedoes
EndUndoRedoHistory
Fore
SplineSet
714 1564 m 1
 540 1192 456 985 456 678 c 0
 456 361 548 145 725 -244 c 1
 498 -244 l 1
 291 143 184 359 184 675 c 0
 184 983 284 1192 487 1564 c 1
 714 1564 l 1
EndSplineSet
EndChar

StartChar: parenright
Encoding: 41 41 69
Width: 821
VWidth: 0
GlyphClass: 2
Flags: HW
LayerCount: 2
UndoRedoHistory
Layer: 1
Undoes
EndUndoes
Redoes
EndRedoes
EndUndoRedoHistory
Fore
SplineSet
117 -244 m 1
 291 128 375 335 375 642 c 0
 375 959 283 1175 106 1564 c 1
 333 1564 l 1
 540 1177 647 961 647 645 c 0
 647 337 547 128 344 -244 c 1
 117 -244 l 1
EndSplineSet
EndChar

StartChar: percent
Encoding: 37 37 70
Width: 2294
VWidth: 0
GlyphClass: 2
Flags: HW
LayerCount: 2
UndoRedoHistory
Layer: 1
Undoes
EndUndoes
Redoes
EndRedoes
EndUndoRedoHistory
Fore
SplineSet
1802 116 m 0
 1973 116 2049 262 2049 433 c 0
 2049 619 1963 745 1803 745 c 0
 1629 745 1553 601 1553 429 c 0
 1553 255 1628 116 1802 116 c 0
1798 -17 m 0
 1520 -17 1384 188 1384 427 c 0
 1384 708 1561 877 1804 877 c 0
 2071 877 2216 697 2216 432 c 0
 2216 152 2040 -17 1798 -17 c 0
502 576 m 0
 224 576 88 781 88 1020 c 0
 88 1301 265 1470 508 1470 c 0
 775 1470 920 1290 920 1025 c 0
 920 745 744 576 502 576 c 0
506 709 m 0
 677 709 753 855 753 1026 c 0
 753 1212 667 1338 507 1338 c 0
 333 1338 257 1194 257 1022 c 0
 257 848 332 709 506 709 c 0
547 0 m 1
 1597 1470 l 1
 1761 1470 l 1
 728 0 l 1
 547 0 l 1
EndSplineSet
EndChar

StartChar: period
Encoding: 46 46 71
Width: 658
VWidth: 0
GlyphClass: 2
Flags: W
LayerCount: 2
UndoRedoHistory
Layer: 1
Undoes
EndUndoes
Redoes
EndRedoes
EndUndoRedoHistory
Fore
SplineSet
329 0 m 0
 233 0 164 68 164 163 c 0
 164 255 233 322 329 322 c 0
 425 322 494 255 494 160 c 0
 494 66 425 0 329 0 c 0
EndSplineSet
EndChar

StartChar: plus
Encoding: 43 43 72
Width: 1674
VWidth: 0
GlyphClass: 2
Flags: W
LayerCount: 2
UndoRedoHistory
Layer: 1
Undoes
EndUndoes
Redoes
EndRedoes
EndUndoRedoHistory
Fore
SplineSet
759 109 m 1
 759 605 l 1
 296 605 l 1
 296 769 l 1
 761 769 l 1
 761 1266 l 1
 925 1266 l 1
 925 769 l 1
 1389 769 l 1
 1389 605 l 1
 923 605 l 1
 923 109 l 1
 759 109 l 1
EndSplineSet
EndChar

StartChar: q
Encoding: 113 113 73
Width: 1247
VWidth: 0
GlyphClass: 2
Flags: HW
LayerCount: 2
UndoRedoHistory
Layer: 1
Undoes
EndUndoes
Redoes
EndRedoes
EndUndoRedoHistory
Fore
SplineSet
1084 -553 m 2
 916 -639 816 -538 816 -400 c 2
 816 107 l 1
 748 14 626 -22 530 -22 c 0
 286 -22 104 183 104 444 c 0
 104 790 323 1052 656 1052 c 0
 783 1052 962 998 1058 942 c 1
 1058 -334 l 1
 1324 -200 l 1
 1417 -383 l 1
 1084 -553 l 2
559 169 m 0
 707 169 816 336 816 529 c 2
 816 838 l 1
 780 852 710 861 657 861 c 0
 488 861 352 709 352 454 c 0
 352 302 448 169 559 169 c 0
EndSplineSet
EndChar

StartChar: question
Encoding: 63 63 74
Width: 957
VWidth: 0
GlyphClass: 2
Flags: HW
LayerCount: 2
UndoRedoHistory
Layer: 1
Undoes
EndUndoes
Redoes
EndRedoes
EndUndoRedoHistory
Fore
SplineSet
319 399 m 1
 319 863 583 953 583 1099 c 0
 583 1202 503 1242 409 1242 c 0
 343 1242 252 1223 178 1195 c 1
 147 1406 l 1
 250 1449 363 1470 463 1470 c 0
 676 1470 860 1367 860 1127 c 0
 860 771 490 752 433 399 c 1
 319 399 l 1
371 0 m 0
 282 0 219 63 219 150 c 0
 219 235 284 298 373 298 c 0
 461 298 524 235 524 148 c 0
 524 63 460 0 371 0 c 0
EndSplineSet
EndChar

StartChar: quotedbl
Encoding: 34 34 75
Width: 1278
VWidth: 0
GlyphClass: 2
Flags: W
LayerCount: 2
UndoRedoHistory
Layer: 1
Undoes
EndUndoes
Redoes
EndRedoes
EndUndoRedoHistory
Fore
SplineSet
387 928 m 1
 361 1470 l 1
 557 1470 l 1
 540 928 l 1
 387 928 l 1
726 928 m 1
 701 1470 l 1
 895 1470 l 1
 878 928 l 1
 726 928 l 1
EndSplineSet
EndChar

StartChar: quotesingle
Encoding: 39 39 76
Width: 986
VWidth: 0
GlyphClass: 2
Flags: W
LayerCount: 2
UndoRedoHistory
Layer: 1
Undoes
EndUndoes
Redoes
EndRedoes
EndUndoRedoHistory
Fore
SplineSet
362 1742 m 1
 320 2284 l 1
 515 2284 l 1
 515 1742 l 1
 362 1742 l 1
EndSplineSet
EndChar

StartChar: r
Encoding: 114 114 77
Width: 855
VWidth: 0
GlyphClass: 2
Flags: W
HStem: 0 21<183 183 183 425> 790 225 965 20
VStem: 205 242
LayerCount: 2
UndoRedoHistory
Layer: 1
Undoes
EndUndoes
Redoes
EndRedoes
EndUndoRedoHistory
Fore
SplineSet
183 0 m 1
 183 652 l 2
 183 801 103 898 54 937 c 1
 280 1026 l 1
 319 988 355 952 384 864 c 1
 444 993 563 1044 671 1044 c 0
 751 1044 792 1027 804 1022 c 1
 786 815 l 1
 742 826 705 831 670 831 c 0
 479 831 425 648 425 566 c 2
 425 0 l 1
 183 0 l 1
EndSplineSet
EndChar

StartChar: s
Encoding: 115 115 78
Width: 919
VWidth: 0
GlyphClass: 2
Flags: W
HStem: -22 190<415 530.5 415 599> 832 184
VStem: 130 231 620 221
LayerCount: 2
UndoRedoHistory
Layer: 1
Undoes
EndUndoes
Redoes
EndRedoes
EndUndoRedoHistory
Fore
SplineSet
482 -22 m 0
 330 -22 194 34 133 67 c 1
 185 242 l 1
 220 224 348 168 482 168 c 0
 579 168 612 218 612 275 c 0
 612 352 564 383 407 441 c 1
 190 513 122 610 122 754 c 0
 122 882 212 1052 469 1052 c 0
 650 1052 768 992 795 977 c 1
 739 810 l 1
 652 848 566 868 494 868 c 0
 411 868 353 839 353 773 c 0
 353 715 395 668 523 625 c 1
 747 554 832 469 833 304 c 1
 833 107 716 -22 482 -22 c 0
EndSplineSet
EndChar

StartChar: semicolon
Encoding: 59 59 79
Width: 961
VWidth: 0
GlyphClass: 2
Flags: W
LayerCount: 2
UndoRedoHistory
Layer: 1
Undoes
EndUndoes
Redoes
EndRedoes
EndUndoRedoHistory
Fore
SplineSet
186 -451 m 1
 311 93 l 1
 531 93 l 1
 340 -451 l 1
 186 -451 l 1
256 837 m 1
 311 1084 l 1
 511 1084 l 1
 511 837 l 1
 256 837 l 1
EndSplineSet
EndChar

StartChar: seven
Encoding: 55 55 80
Width: 1254
VWidth: 0
GlyphClass: 2
Flags: W
LayerCount: 2
UndoRedoHistory
Layer: 1
Undoes
EndUndoes
Redoes
EndRedoes
EndUndoRedoHistory
Fore
SplineSet
340 0 m 1
 767 1257 l 1
 173 1257 l 1
 173 1456 l 1
 1057 1456 l 1
 1057 1275 l 1
 619 0 l 1
 340 0 l 1
EndSplineSet
EndChar

StartChar: six
Encoding: 54 54 81
Width: 1254
VWidth: 0
GlyphClass: 2
Flags: HW
LayerCount: 2
UndoRedoHistory
Layer: 1
Undoes
EndUndoes
Redoes
EndRedoes
EndUndoRedoHistory
Fore
SplineSet
655 -22 m 0
 409 -22 144 134 144 537 c 0
 144 910 309 1384 870 1551 c 1
 946 1349 l 1
 665 1263 489 1098 421 832 c 1
 499 905 599 940 699 939 c 0
 917 937 1136 769 1136 468 c 0
 1136 140 885 -22 655 -22 c 0
648 180 m 0
 775 180 903 272 903 453 c 0
 903 649 784 736 655 736 c 0
 528 736 391 653 391 455 c 0
 391 273 520 180 648 180 c 0
EndSplineSet
EndChar

StartChar: slash
Encoding: 47 47 82
Width: 1127
VWidth: 0
GlyphClass: 2
Flags: W
LayerCount: 2
UndoRedoHistory
Layer: 1
Undoes
EndUndoes
Redoes
EndRedoes
EndUndoRedoHistory
Fore
SplineSet
176 0 m 1
 777 1448 l 1
 963 1448 l 1
 358 0 l 1
 176 0 l 1
EndSplineSet
EndChar

StartChar: t
Encoding: 116 116 84
Width: 868
VWidth: 0
GlyphClass: 2
Flags: HW
HStem: -16 203<580.5 621>
VStem: 225 242<194 850 356 850 356 850 356 1339 356 1026>
LayerCount: 2
UndoRedoHistory
Layer: 1
Undoes
EndUndoes
Redoes
EndRedoes
EndUndoRedoHistory
Fore
SplineSet
580 -16 m 0
 377 -16 225 84 225 304 c 2
 225 850 l 1
 38 850 l 1
 38 1026 l 1
 225 1026 l 1
 225 1339 l 1
 466 1368 l 1
 466 1026 l 1
 770 1026 l 1
 770 850 l 1
 467 850 l 1
 467 356 l 2
 467 241 526 187 635 187 c 0
 685 187 747 199 821 221 c 1
 846 31 l 1
 752 0 662 -16 580 -16 c 0
EndSplineSet
EndChar

StartChar: three
Encoding: 51 51 85
Width: 1254
VWidth: 0
GlyphClass: 2
Flags: W
LayerCount: 2
UndoRedoHistory
Layer: 1
Undoes
EndUndoes
Redoes
EndRedoes
EndUndoRedoHistory
Fore
SplineSet
627 -24 m 0
 446 -24 320 17 184 112 c 1
 276 288 l 1
 396 210 508 184 623 184 c 0
 767 184 867 279 867 410 c 0
 867 619 714 652 540 652 c 2
 435 652 l 1
 435 848 l 1
 526 848 l 2
 645 848 823 872 823 1060 c 0
 823 1207 712 1276 597 1276 c 0
 498 1276 367 1242 283 1160 c 1
 171 1317 l 1
 300 1437 447 1483 602 1483 c 0
 836 1483 1060 1358 1060 1090 c 0
 1060 894 927 795 834 768 c 1
 931 749 1103 658 1103 407 c 0
 1103 132 884 -24 627 -24 c 0
EndSplineSet
EndChar

StartChar: two
Encoding: 50 50 86
Width: 1254
VWidth: 0
GlyphClass: 2
Flags: W
LayerCount: 2
UndoRedoHistory
Layer: 1
Undoes
EndUndoes
Redoes
EndRedoes
EndUndoRedoHistory
Fore
SplineSet
600 1483 m 0
 831 1483 1060 1336 1060 1027 c 0
 1060 863 949 709 803 543 c 2
 502 200 l 1
 1047 200 l 1
 1047 0 l 1
 195 0 l 1
 195 192 l 1
 640 685 l 2
 757 815 811 940 811 1041 c 0
 811 1178 716 1276 579 1276 c 0
 477 1276 380 1215 290 1112 c 1
 134 1246 l 1
 248 1404 435 1483 600 1483 c 0
EndSplineSet
EndChar

StartChar: u
Encoding: 117 117 87
Width: 1245
VWidth: 0
GlyphClass: 2
Flags: HW
HStem: -16 192<1136.5 1179>
VStem: 172 242<241.5 541 377 524> 810 242<360 409 409 1026>
LayerCount: 2
UndoRedoHistory
Layer: 1
Undoes
EndUndoes
Redoes
EndRedoes
EndUndoRedoHistory
Fore
SplineSet
531 -22 m 0
 307 -22 172 129 172 354 c 2
 172 524 l 2
 172 834 113 996 113 996 c 1
 358 1026 l 1
 358 1026 414 868 414 541 c 2
 414 377 l 2
 414 251 473 177 581 170 c 0
 718 161 810 227 810 409 c 2
 810 1026 l 1
 1052 1026 l 1
 1052 360 l 2
 1052 244 1062 176 1211 176 c 1
 1179 -16 l 1
 1017 -16 906 -1 852 151 c 1
 804 50 689 -22 531 -22 c 0
EndSplineSet
EndChar

StartChar: underscore
Encoding: 95 95 88
Width: 937
VWidth: 0
GlyphClass: 2
Flags: W
LayerCount: 2
UndoRedoHistory
Layer: 1
Undoes
EndUndoes
Redoes
EndRedoes
EndUndoRedoHistory
Fore
SplineSet
0 -481 m 1
 0 -353 l 1
 949 -353 l 1
 949 -481 l 1
 0 -481 l 1
EndSplineSet
EndChar

StartChar: v
Encoding: 118 118 91
Width: 1036
VWidth: 0
GlyphClass: 2
Flags: W
HStem: 0 21<435 435 435 637> 976 20
LayerCount: 2
UndoRedoHistory
Layer: 1
Undoes
EndUndoes
Redoes
EndRedoes
EndUndoRedoHistory
Fore
SplineSet
435 0 m 1
 17 1026 l 1
 270 1026 l 1
 472 484 l 1
 533 325 l 1
 587 484 l 1
 770 1026 l 1
 1019 1026 l 1
 637 0 l 1
 435 0 l 1
EndSplineSet
EndChar

StartChar: w
Encoding: 119 119 92
Width: 1633
VWidth: 0
GlyphClass: 2
Flags: HW
LayerCount: 2
UndoRedoHistory
Layer: 1
Undoes
EndUndoes
Redoes
EndRedoes
EndUndoRedoHistory
Fore
SplineSet
416.5 0 m 1
 21 1026 l 1
 275 1026 l 1
 459.5 484 l 1
 515.5 325 l 1
 570.5 484 l 1
 728 995 l 1
 900 995 l 1
 1072.5 484 l 1
 1129.5 325 l 1
 1183.5 484 l 1
 1365 1026 l 1
 1613 1026 l 1
 1232.5 0 l 1
 1029.5 0 l 1
 819.5 582 l 1
 619.5 0 l 1
 416.5 0 l 1
EndSplineSet
EndChar

StartChar: x
Encoding: 120 120 93
Width: 1103
VWidth: 0
GlyphClass: 2
Flags: W
HStem: 0 21<24.5 24.5 24.5 290.5 775.5 775.5 775.5 1078.5> 976 20
LayerCount: 2
UndoRedoHistory
Layer: 1
Undoes
EndUndoes
Redoes
EndRedoes
EndUndoRedoHistory
Fore
SplineSet
24.5 0 m 1
 419 535 l 1
 70 1026 l 1
 355 1026 l 1
 574 697 l 1
 783 1026 l 1
 1062 1026 l 1
 698 520 l 1
 1078.5 0 l 1
 775.5 0 l 1
 538 361 l 1
 290.5 0 l 1
 24.5 0 l 1
EndSplineSet
EndChar

StartChar: y
Encoding: 121 121 94
Width: 1242
VWidth: 0
GlyphClass: 2
Flags: HW
HStem: -542 207<507 606.5 502 697> -22 192<545 663.5>
VStem: 175 242<242.5 607 381 594> 840 242<-163.5 1026 -6 187 401.5 503 503 1026>
LayerCount: 2
UndoRedoHistory
Layer: 1
Undoes
EndUndoes
Redoes
EndRedoes
EndUndoRedoHistory
Fore
SplineSet
564 -542 m 0
 450 -542 321 -513 205 -459 c 1
 251 -259 l 1
 338 -303 459 -335 545 -335 c 0
 668 -335 840 -283 840 -44 c 2
 840 187 l 1
 900 184 l 1
 858 86 769 -22 558 -22 c 0
 329 -22 175 130 175 355 c 2
 175 594 l 2
 175 874 116 996 116 996 c 1
 361 1026 l 1
 361 1026 422 914 417 607 c 1
 417 381 l 2
 417 247 488 170 602 170 c 0
 760 170 840 300 840 503 c 2
 840 1026 l 1
 1082 1026 l 1
 1082 -6 l 1
 1081 -401 830 -542 564 -542 c 0
EndSplineSet
EndChar

StartChar: z
Encoding: 122 122 95
Width: 968
VWidth: 0
GlyphClass: 2
Flags: W
HStem: 0 185 825 171
LayerCount: 2
UndoRedoHistory
Layer: 1
Undoes
EndUndoes
Redoes
EndRedoes
EndUndoRedoHistory
Fore
SplineSet
106 0 m 1
 106 155 l 1
 584 856 l 1
 112 856 l 1
 112 1026 l 1
 872 1026 l 1
 872 873 l 1
 402 170 l 1
 894 170 l 1
 894 0 l 1
 106 0 l 1
EndSplineSet
EndChar

StartChar: zero
Encoding: 48 48 96
Width: 1254
VWidth: 0
GlyphClass: 2
Flags: W
LayerCount: 2
UndoRedoHistory
Layer: 1
Undoes
EndUndoes
Redoes
EndRedoes
EndUndoRedoHistory
Fore
SplineSet
625 184 m 0
 820 184 923 413 923 731 c 0
 923 1055 820 1276 625 1276 c 0
 427 1276 331 1055 331 731 c 0
 331 413 427 184 625 184 c 0
626 -24 m 0
 279 -24 93 290 93 728 c 0
 93 1172 279 1483 626 1483 c 0
 975 1483 1161 1172 1161 728 c 0
 1161 290 975 -24 626 -24 c 0
EndSplineSet
EndChar
